# xmcd
#
# Track frame offsets:
#	150
#	19267
#	47605
#	62255
#	74850
#	92825
#	111169
#	134125
#	149898
#	174419
#	189305
#	201180
#	218305
#
# Disc length: 3133 seconds
#
# Revision: 0
# Processed by: cddbd v1.5.1PL0 Copyright (c) Steve Scherf et al.
# Submitted via: dBpowerAMP V4.0
#
DISCID=c70c3b0d
DTITLE=Flyin' Blind Blues Band - Havin' Fun Feelin' Blue
DYEAR=2005
DGENRE=Blues
TTITLE0=Sharpstick
TTITLE1=Playin' in the Sand
TTITLE2=Someday Baby
TTITLE3=Havin' Fun Feelin' Blue
TTITLE4=Cruise It, Don't Lose It
TTITLE5=2 to 4 and 7 to 9
TTITLE6=Funny Turns
TTITLE7=Hair of the Dog
TTITLE8=Poor Ol' Me
TTITLE9=Love Has No Rules
TTITLE10=Papergirl
TTITLE11=Red Dress
TTITLE12=We All Want It All
EXTD=
EXTT0=
EXTT1=
EXTT2=
EXTT3=
EXTT4=
EXTT5=
EXTT6=
EXTT7=
EXTT8=
EXTT9=
EXTT10=
EXTT11=
EXTT12=
PLAYORDER=
